Motion_pl08
version=1
nRows=8
nColumns=43
inDegrees=yes
endheader
time	pelvis_tilt	pelvis_list	pelvis_rotation	pelvis_tx	pelvis_ty	pelvis_tz	hip_flexion_r	hip_adduction_r	hip_rotation_r	knee_angle_r	ankle_angle_r	subtalar_angle_r	mtp_angle_r	hip_flexion_l	hip_adduction_l	hip_rotation_l	knee_angle_l	ankle_angle_l	subtalar_angle_l	mtp_angle_l	lumbar_extension	lumbar_bending	lumbar_rotation	neck_flexion	neck_lateral_bending	neck_rotation	arm_flex_r	arm_add_r	arm_rot_r	elbow_flex_r	pro_sup_r	wrist_flex_r	wrist_dev_r	hand_finger_flex_r	arm_flex_l	arm_add_l	arm_rot_l	elbow_flex_l	pro_sup_l	wrist_flex_l	wrist_dev_l	hand_finger_flex_l
      1.61500000	     -0.08630096	     -6.66101638	     92.40960846	      0.01441716	      0.70932565	      0.31510686	     65.03819143	     -5.69935191	     -0.88584980	   -100.61910442	     18.97329153	      6.34436565	     26.49963276	     64.09196413	    -11.92507091	     -2.22120497	    -99.07632315	     13.14069759	     25.16224990	     42.72106608	    -43.30236303	     -0.63031705	      0.46455176	     44.97512858	      0.39627622	     -4.23888853	     53.36053971	    -23.09896267	     -0.28808633	     53.64445520	    106.38810131	    -10.90875860	    -22.18569003	    -14.38402221	     50.62358837	    -28.87146846	     13.44109394	     42.60908613	    104.17599311	    -22.84253655	     -9.70168747	      3.38510761
      1.61750000	     -0.13052178	     -6.37146820	     92.37412890	      0.01411764	      0.71288247	      0.31411532	     64.27224355	     -5.73886678	     -0.95184198	   -100.07708959	     18.95097807	      6.15959033	     26.42044878	     63.30739975	    -11.90783962	     -2.44256328	    -98.54391493	     13.00408606	     25.01506216	     42.65621331	    -43.55080355	     -0.63219668	      0.53948679	     44.85404874	      0.30408377	     -4.23361619	     52.37877234	    -22.91616822	     -0.82117797	     53.59689111	    106.44390720	    -11.03012572	    -22.29749277	    -14.59159066	     49.65906257	    -28.53530322	     13.11831692	     42.37193062	    104.01424461	    -22.48543420	     -9.63152541	      3.61584835
      1.62000000	     -0.11744143	     -6.45143630	     92.36120758	      0.01387645	      0.71612748	      0.31350441	     63.89306251	     -5.68651007	     -0.97206180	    -99.42818657	     18.87673064	      6.14526811	     26.38791145	     62.95496009	    -11.80683557	     -2.48014274	    -97.94122303	     12.94040185	     24.96806735	     42.63102642	    -43.43324972	     -0.60138468	      0.55707639	     44.87708891	      0.29427526	     -4.24187989	     51.60566502	    -22.90016256	     -0.83765200	     53.29584478	    106.48095657	    -11.00959373	    -22.25169695	    -14.61384705	     48.75474994	    -28.39537295	     13.20999974	     42.03068111	    103.99927389	    -22.35253824	     -9.56368364	      3.68599454
      1.62250000	     -0.15786146	     -6.25444953	     92.33186639	      0.01355643	      0.71960860	      0.31260622	     63.21951712	     -5.70000126	     -1.00739304	    -98.85718914	     18.87548675	      5.94166066	     25.64124035	     62.29972146	    -11.73079657	     -2.65376294	    -97.41737555	     12.75717848	     24.65420003	     42.25535202	    -43.60432598	     -0.57812274	      0.56411775	     44.88538353	      0.17266866	     -4.22255435	     50.65669142	    -22.30416137	     -2.36441929	     53.24586842	    108.34475102	     -9.95869722	    -22.20031011	    -15.63991683	     47.58368465	    -27.76023682	     11.25670557	     41.74757103	    104.83891967	    -20.75151409	     -9.93507007	      4.69400431
      1.62500000	     -0.14343828	     -6.32384152	     92.31409797	      0.01328443	      0.72275651	      0.31197591	     62.84802817	     -5.67538404	     -1.05560515	    -98.23179135	     18.82284629	      5.93033267	     25.61737260	     61.94162768	    -11.63749749	     -2.70428729	    -96.81619209	     12.70715061	     24.60452626	     42.23530658	    -43.48421134	     -0.54617948	      0.58574635	     44.85563916	      0.16213497	     -4.22427205	     49.86607689	    -22.29375010	     -2.36883248	     52.97470885	    108.34325531	     -9.96724966	    -22.17006598	    -15.67369080	     46.67460162	    -27.62082188	     11.38289610	     41.42542368	    104.83614879	    -20.71194906	     -9.86641590	      4.70453855
      1.62750000	     -0.18113826	     -6.07440940	     92.29743816	      0.01296181	      0.72612046	      0.31102426	     62.12835959	     -5.73071876	     -1.12838429	    -97.68722129	     18.87259422	      5.77794368	     25.56165350	     61.23324549	    -11.56389014	     -2.86366097	    -96.29866378	     12.62375467	     24.36312765	     42.18924981	    -43.68044565	     -0.54121751	      0.64580521	     44.71234511	      0.08955604	     -4.22929184	     48.89924074	    -22.12940356	     -2.83729291	     52.90702992	    108.25629436	    -10.19681307	    -22.29563392	    -15.89548300	     45.73154498	    -27.29370721	     11.16217965	     41.15424399	    104.70659407	    -20.69157692	     -9.92076989	      4.67319608
      1.63000000	     -0.16774253	     -6.14830290	     92.27096753	      0.01267665	      0.72922640	      0.31040455	     61.75923319	     -5.68813789	     -1.14860640	    -97.04798539	     18.79793970	      5.77115043	     25.53224180	     60.89295367	    -11.47338253	     -2.90657202	    -95.71198265	     12.56020206	     24.30067506	     42.16700096	    -43.55698549	     -0.51115322	      0.66756806	     44.72968137	      0.07883556	     -4.24104359	     48.13992499	    -22.10066957	     -2.86207017	     52.60386649	    108.25957731	    -10.20131010	    -22.25958363	    -15.92145918	     44.83925911	    -27.14972716	     11.26277136	     40.80200598	    104.69156346	    -20.60252722	     -9.88957112	      4.69491832
      1.63250000	     -0.19691093	     -5.85649176	     92.23109406	      0.01239210	      0.73263518	      0.30942693	     60.99492318	     -5.71326233	     -1.21604035	    -96.49593170	     18.80692542	      5.60616998	     25.44907410	     60.12905838	    -11.44985738	     -3.09197867	    -95.19375432	     12.45113861	     23.98059248	     42.10862059	    -43.79827341	     -0.51493813	      0.74866959	     44.62303065	      0.00617902	     -4.28991073	     47.20572490	    -21.86111031	     -3.47927358	     52.48641894	    108.19355267	    -10.43337470	    -22.43108585	    -16.13620812	     43.90726723	    -26.78913998	     10.88233698	     40.46670098	    104.48697859	    -20.36782803	    -10.16335221	      4.69875313
